<svg width="16" height="16" viewBox="0 0 16 16" fill="#999999" xmlns="http://www.w3.org/2000/svg">
<path d="M10 8L10.3536 7.64645L10.7071 8L10.3536 8.35355L10 8ZM6.14645 4.85355C5.95118 4.65829 5.95118 4.34171 6.14645 4.14645C6.34171 3.95118 6.65829 3.95118 6.85355 4.14645L6.14645 4.85355ZM6.85355 11.8536C6.65829 12.0488 6.34171 12.0488 6.14645 11.8536C5.95118 11.6583 5.95118 11.3417 6.14645 11.1464L6.85355 11.8536ZM9.64645 8.35355L6.14645 4.85355L6.85355 4.14645L10.3536 7.64645L9.64645 8.35355ZM10.3536 8.35355L6.85355 11.8536L6.14645 11.1464L9.64645 7.64645L10.3536 8.35355Z" fill="#999"/>
</svg>
